<svg version="1.0" xmlns="http://www.w3.org/2000/svg" width="933.333" height="933.333" viewBox="0 0 700 700"><path d="M104.5 31c-9.9 1.9-14.1 3.3-23.1 7.7C64.6 46.9 50.3 60.3 40.8 77c-2.6 4.7-7.6 16.7-8.4 20.4-3.4 15.5-3.3 10.2-3.1 255.1.2 218.2.4 239.6 1.9 245.6 6.6 26.7 22.9 48.1 46.9 61.7 6.4 3.6 21.8 8.9 29.3 10 7.1 1 478.8.9 485.5-.1 17.8-2.8 37.4-12.9 50.1-25.6 13.7-13.9 21.9-29 26-47.9 1.8-8.4 1.8-17.3 1.6-247.7-.1-131.5-.5-240.8-1-243-3.5-17.7-12.5-34.9-25.6-48.6-12.1-12.7-32.4-23.4-50.2-26.6-2.4-.4-111.4-.8-242.3-.9-224.5-.2-238.5-.1-247 1.6zm70.3 100.3.2 43.7-43.7-.2-43.8-.3.1-30v-30l2.8-6c4.7-10.4 13.3-17.5 23.9-19.9 2.8-.7 15.8-1.1 32.5-1.1h27.7l.3 43.8zM466.6 203c0 63.5-.1 116.1-.4 116.7-.3 1-24.6 1.3-116.6 1.3H233.4l.1-116.8c.1-64.2.3-116.7.4-116.7H466.5l.1 115.5zM586 88.4c12.1 2.8 22.7 13.7 25.5 26 .7 3.2 1.1 15.3 1 32.6v27.5l-43.8.3-43.7.2v-43.3c0-23.9.2-43.6.4-43.8.8-.8 57-.3 60.6.5zM175 277.2V321l-43.7-.2-43.8-.3-.1-43c0-23.7.1-43.3.2-43.6.2-.3 19.9-.5 43.8-.5H175v43.8zm437.6-1.2c0 23.4-.2 43.1-.4 43.7-.3 1-10 1.3-43.8 1.3H525v-43.3c0-23.9.2-43.6.5-43.9.3-.2 19.9-.4 43.7-.4l43.3.1.1 42.5zM174.8 422.8l-.3 43.7h-87l-.1-43c0-23.7.1-43.3.3-43.7.2-.4 19.9-.7 43.8-.7H175l-.2 43.7zm291.8 72.7c0 64.1-.2 116.6-.5 116.6-.3.1-52.7.2-116.3.3-78.4.1-115.9-.2-116-.9 0-.5-.2-53.1-.3-116.7l-.1-115.8H350l116.6.1v116.4zm145.5-115.2c.1.7.2 20.2.3 43.4.1 27.6-.2 42.4-.9 42.5-.5.1-20.2.2-43.7.3l-42.8.1v-87.5h43.5c33.4 0 43.5.3 43.6 1.2zM175 568.8v43.8l-29.7-.2c-17.9-.1-31.1-.6-33.1-1.2-9.7-3.1-18.6-11.6-22.3-21.1-2.1-5.3-2.2-7.4-2.4-34.6-.1-16 0-29.3.2-29.8.2-.4 20-.7 43.9-.7H175v43.8zm437.4-13.3v30l-3.2 6.6c-4.9 10.2-13.2 17.2-23.2 19.5-1.9.4-16.4.8-32.2.9l-28.8.1V525l43.8.2 43.7.3-.1 30z"/></svg>