<?xml version="1.0" standalone="no"?>
<!DOCTYPE svg PUBLIC "-//W3C//DTD SVG 20010904//EN"
 "http://www.w3.org/TR/2001/REC-SVG-20010904/DTD/svg10.dtd">
<svg version="1.0" xmlns="http://www.w3.org/2000/svg"
 width="700.000000pt" height="700.000000pt" viewBox="0 0 700.000000 700.000000"
 preserveAspectRatio="xMidYMid meet">
<metadata>
Created by potrace 1.14, written by Peter Selinger 2001-2017
</metadata>
<g transform="translate(0.000000,700.000000) scale(0.100000,-0.100000)"
fill="#000000" stroke="none">
<path d="M1045 6690 c-99 -19 -141 -33 -231 -77 -168 -82 -311 -216 -406 -383
-26 -47 -76 -167 -84 -204 -34 -155 -33 -102 -31 -2551 2 -2182 4 -2396 19
-2456 66 -267 229 -481 469 -617 64 -36 218 -89 293 -100 71 -10 4788 -9 4855
1 178 28 374 129 501 256 137 139 219 290 260 479 18 84 18 173 16 2477 -1
1315 -5 2408 -10 2430 -35 177 -125 349 -256 486 -121 127 -324 234 -502 266
-24 4 -1114 8 -2423 9 -2245 2 -2385 1 -2470 -16z m703 -1003 l2 -437 -437 2
-438 3 1 300 0 300 28 60 c47 104 133 175 239 199 28 7 158 11 325 11 l277 0
3 -438z m2918 -717 c0 -635 -1 -1161 -4 -1167 -3 -10 -246 -13 -1166 -13
l-1162 0 1 1168 c1 642 3 1167 4 1167 0 0 524 0 1164 0 l1162 0 1 -1155z
m1194 1146 c121 -28 227 -137 255 -260 7 -32 11 -153 10 -326 l0 -275 -438 -3
-437 -2 0 433 c0 239 2 436 4 438 8 8 570 3 606 -5z m-4110 -1888 l0 -438
-437 2 -438 3 -1 430 c0 237 1 433 2 436 2 3 199 5 438 5 l436 0 0 -438z
m4376 12 c0 -234 -2 -431 -4 -437 -3 -10 -100 -13 -438 -13 l-434 0 0 433 c0
239 2 436 5 439 3 2 199 4 437 4 l433 -1 1 -425z m-4378 -1468 l-3 -437 -435
0 -435 0 -1 430 c0 237 1 433 3 437 2 4 199 7 438 7 l435 0 -2 -437z m2918
-727 c0 -641 -2 -1166 -5 -1166 -3 -1 -527 -2 -1163 -3 -784 -1 -1159 2 -1160
9 0 5 -2 531 -3 1167 l-1 1158 1166 0 1166 -1 0 -1164z m1455 1152 c1 -7 2
-202 3 -434 1 -276 -2 -424 -9 -425 -5 -1 -202 -2 -437 -3 l-428 -1 0 438 0
437 435 0 c334 0 435 -3 436 -12z m-4371 -1885 l0 -438 -297 2 c-179 1 -311 6
-331 12 -97 31 -186 116 -223 211 -21 53 -22 74 -24 346 -1 160 0 293 2 298 2
4 200 7 439 7 l434 0 0 -438z m4374 133 l0 -300 -32 -66 c-49 -102 -132 -172
-232 -195 -19 -4 -164 -8 -322 -9 l-288 -1 0 438 0 438 438 -2 437 -3 -1 -300z"/>
</g>
</svg>
